<svg width="1440" height="900" viewBox="0 0 1440 900" fill="none" xmlns="http://www.w3.org/2000/svg">
  <rect width="1440" height="900" fill="#F8FAFC"/>
  <rect width="1440" height="70" fill="#1F4E79"/>
  <text x="40" y="42" fill="white" font-family="Arial" font-weight="bold" font-size="20">AUTOS COLOMBIA</text>
  
  <rect y="70" width="250" height="830" fill="#FFFFFF" stroke="#E2E8F0"/>
  <text x="30" y="120" fill="#64748B" font-family="Arial" font-size="16">Inicio</text>
  <text x="30" y="170" fill="#64748B" font-family="Arial" font-size="16">Usuarios</text>
  <text x="30" y="220" fill="#64748B" font-family="Arial" font-size="16">Celdas</text>
  <rect x="0" y="245" width="250" height="45" fill="#EBF5FF"/>
  <rect x="0" y="245" width="4" height="45" fill="#2E75B6"/>
  <text x="30" y="275" fill="#2E75B6" font-family="Arial" font-weight="bold" font-size="16">Pagos</text>

  <text x="300" y="130" fill="#1F4E79" font-family="Arial" font-weight="bold" font-size="28">Estado de Pagos</text>
  
  <rect x="900" y="100" width="200" height="45" rx="4" fill="#27AE60"/>
  <text x="925" y="128" fill="white" font-family="Arial" font-weight="bold" font-size="14">+ Registrar Nuevo Pago</text>

  <rect x="300" y="170" width="350" height="40" rx="4" stroke="#CBD5E1" fill="white"/>
  <text x="315" y="195" fill="#94A3B8" font-family="Arial" font-size="14">Buscar por cédula o placa...</text>
  
  <rect x="660" y="170" width="150" height="40" rx="4" stroke="#CBD5E1" fill="white"/>
  <text x="675" y="195" fill="#1E293B" font-family="Arial" font-size="14">Estado: Todos ▾</text>
  
  <rect x="1000" y="170" width="100" height="40" rx="4" stroke="#2E75B6" fill="white"/>
  <text x="1010" y="195" fill="#2E75B6" font-family="Arial" font-weight="bold" font-size="13">Exportar CSV</text>

  <rect x="300" y="230" width="800" height="450" rx="8" fill="white" stroke="#E2E8F0"/>
  
  <rect x="300" y="230" width="800" height="45" rx="8" fill="#F8FAFC"/>
  <text x="320" y="258" fill="#64748B" font-family="Arial" font-weight="bold" font-size="12">CÉDULA</text>
  <text x="420" y="258" fill="#64748B" font-family="Arial" font-weight="bold" font-size="12">NOMBRE</text>
  <text x="550" y="258" fill="#64748B" font-family="Arial" font-weight="bold" font-size="12">PLACA</text>
  <text x="630" y="258" fill="#64748B" font-family="Arial" font-weight="bold" font-size="12">CELDA</text>
  <text x="710" y="258" fill="#64748B" font-family="Arial" font-weight="bold" font-size="12">ESTADO</text>
  <text x="850" y="258" fill="#64748B" font-family="Arial" font-weight="bold" font-size="12">ACCIONES</text>

  <text x="320" y="300" fill="#1E293B" font-family="Arial" font-size="13">1.020.345</text>
  <text x="420" y="300" fill="#1E293B" font-family="Arial" font-size="13">Pedro Pérez</text>
  <text x="550" y="300" fill="#1E293B" font-family="Arial" font-size="13">ABC-123</text>
  <text x="630" y="300" fill="#1E293B" font-family="Arial" font-size="13">A-15</text>
  <rect x="710" y="282" width="60" height="22" rx="11" fill="#DCFCE7"/>
  <text x="722" y="297" fill="#27AE60" font-family="Arial" font-size="11" font-weight="bold">Al día</text>
  
  <text x="320" y="350" fill="#1E293B" font-family="Arial" font-size="13">1.050.789</text>
  <text x="420" y="350" fill="#1E293B" font-family="Arial" font-size="13">Maria Lopez</text>
  <text x="550" y="350" fill="#1E293B" font-family="Arial" font-size="13">XYZ-789</text>
  <text x="630" y="350" fill="#1E293B" font-family="Arial" font-size="13">B-02</text>
  <rect x="710" y="332" width="110" height="22" rx="11" fill="#FEF3C7"/>
  <text x="720" y="347" fill="#F39C12" font-family="Arial" font-size="11" font-weight="bold">Próximo a vencer</text>

  <text x="320" y="400" fill="#1E293B" font-family="Arial" font-size="13">1.080.222</text>
  <text x="420" y="400" fill="#1E293B" font-family="Arial" font-size="13">Carlos Ruíz</text>
  <text x="550" y="400" fill="#1E293B" font-family="Arial" font-size="13">JKL-456</text>
  <text x="630" y="400" fill="#1E293B" font-family="Arial" font-size="13">C-10</text>
  <rect x="710" y="382" width="110" height="22" rx="11" fill="#FEE2E2"/>
  <text x="720" y="397" fill="#E74C3C" font-family="Arial" font-size="11" font-weight="bold">Vencido – 5 días</text>

  <text x="320" y="720" fill="#64748B" font-family="Arial" font-size="13">Mostrando 3 de 45 usuarios activos</text>
  <rect x="1000" y="700" width="30" height="30" rx="4" stroke="#CBD5E1" fill="white"/>
  <text x="1010" y="720" fill="#1E293B" font-family="Arial" font-size="13">1</text>
  <rect x="1040" y="700" width="30" height="30" rx="4" stroke="#CBD5E1" fill="white"/>
  <text x="1050" y="720" fill="#1E293B" font-family="Arial" font-size="13">2</text>
  <text x="1080" y="720" fill="#64748B" font-family="Arial" font-size="13">...</text>
</svg>
