<svg width="1440" height="900" viewBox="0 0 1440 900" fill="none" xmlns="http://www.w3.org/2000/svg">
  <rect width="1440" height="900" fill="#F8FAFC"/>
  
  <rect width="1440" height="70" fill="#1F4E79"/>
  <text x="40" y="42" fill="white" font-family="Arial" font-weight="bold" font-size="20">AUTOS COLOMBIA</text>
  <text x="1200" y="42" fill="white" font-family="Arial" font-size="14">Operador: Juan David Calle</text>

  <rect y="70" width="250" height="830" fill="#FFFFFF" stroke="#E2E8F0"/>
  <text x="30" y="120" fill="#64748B" font-family="Arial" font-size="16">Inicio</text>
  <text x="30" y="170" fill="#64748B" font-family="Arial" font-size="16">Usuarios</text>
  <text x="30" y="220" fill="#64748B" font-family="Arial" font-size="16">Celdas</text>
  
  <rect x="0" y="245" width="250" height="45" fill="#EBF5FF"/>
  <rect x="0" y="245" width="4" height="45" fill="#2E75B6"/>
  <text x="30" y="275" fill="#2E75B6" font-family="Arial" font-weight="bold" font-size="16">Pagos</text>
  
  <text x="30" y="325" fill="#64748B" font-family="Arial" font-size="16">Reportes</text>
  <text x="30" y="375" fill="#64748B" font-family="Arial" font-size="16">Entradas/Salidas</text>

  <text x="300" y="130" fill="#1F4E79" font-family="Arial" font-weight="bold" font-size="28">Registrar Pago Mensual</text>
  <text x="300" y="155" fill="#64748B" font-family="Arial" font-size="14">Complete los datos del pago para el usuario seleccionado.</text>

  <rect x="300" y="190" width="400" height="40" rx="4" stroke="#CBD5E1" fill="white"/>
  <text x="315" y="215" fill="#94A3B8" font-family="Arial" font-size="14">Buscar por Cédula o Placa...</text>
  <rect x="710" y="190" width="100" height="40" rx="4" fill="#2E75B6"/>
  <text x="735" y="215" fill="white" font-family="Arial" font-weight="bold" font-size="14">Buscar</text>

  <rect x="300" y="260" width="800" height="100" rx="8" fill="#F1F5F9"/>
  <text x="320" y="295" fill="#1E293B" font-family="Arial" font-weight="bold" font-size="16">Pedro Pérez</text>
  <text x="320" y="325" fill="#64748B" font-family="Arial" font-size="14">C.C: 1.020.345.XXX  |  Celda: A-15</text>
  
  <rect x="700" y="290" width="80" height="25" rx="12" fill="#DCFCE7"/>
  <text x="715" y="307" fill="#166534" font-family="Arial" font-size="12" font-weight="bold">AL DÍA</text>

  <text x="300" y="400" fill="#1E293B" font-family="Arial" font-weight="bold" font-size="14">Período de Pago</text>
  <rect x="300" y="415" width="380" height="40" rx="4" stroke="#CBD5E1" fill="#FFFBEB"/>
  <text x="315" y="440" fill="#92400E" font-family="Arial" font-size="14">Abril 2026 (Ya pagado)</text>

  <text x="720" y="400" fill="#1E293B" font-family="Arial" font-weight="bold" font-size="14">Monto ($)</text>
  <rect x="720" y="415" width="380" height="40" rx="4" stroke="#CBD5E1" fill="white"/>
  <text x="735" y="440" fill="#1E293B" font-family="Arial" font-size="14">150.000</text>

  <text x="300" y="490" fill="#1E293B" font-family="Arial" font-weight="bold" font-size="14">Método de Pago</text>
  <circle cx="310" cy="515" r="7" stroke="#2E75B6" stroke-width="2"/>
  <text x="325" y="520" fill="#1E293B" font-family="Arial" font-size="14">Efectivo</text>
  
  <circle cx="410" cy="515" r="7" stroke="#CBD5E1" stroke-width="2"/>
  <text x="425" y="520" fill="#1E293B" font-family="Arial" font-size="14">Transferencia</text>

  <text x="300" y="570" fill="#1E293B" font-family="Arial" font-weight="bold" font-size="14">Referencia / Observaciones</text>
  <rect x="300" y="585" width="800" height="80" rx="4" stroke="#CBD5E1" fill="white"/>

  <rect x="300" y="700" width="500" height="50" rx="4" fill="#2E75B6"/>
  <text x="490" y="730" fill="white" font-family="Arial" font-weight="bold" font-size="16">Registrar Pago</text>
  
  <rect x="820" y="700" width="280" height="50" rx="4" fill="#E2E8F0"/>
  <text x="930" y="730" fill="#475569" font-family="Arial" font-weight="bold" font-size="16">Cancelar</text>
</svg>
