<svg width="1440" height="1024" viewBox="0 0 1440 1024" fill="none" xmlns="http://www.w3.org/2000/svg">
  <rect width="1440" height="1024" fill="#F8FAFC"/>
  
  <rect width="1440" height="70" fill="#1F4E79"/>
  <text x="40" y="42" fill="white" font-family="Arial" font-weight="bold" font-size="20">AUTOS COLOMBIA</text>
  <text x="1200" y="42" fill="white" font-family="Arial" font-size="14">Administrador: Juan David Calle</text>

  <rect y="70" width="250" height="954" fill="#FFFFFF" stroke="#E2E8F0"/>
  <text x="30" y="120" fill="#64748B" font-family="Arial" font-size="16">Inicio</text>
  <text x="30" y="170" fill="#64748B" font-family="Arial" font-size="16">Usuarios</text>
  <text x="30" y="220" fill="#64748B" font-family="Arial" font-size="16">Celdas</text>
  <text x="30" y="270" fill="#64748B" font-family="Arial" font-size="16">Pagos</text>
  <rect x="0" y="295" width="250" height="45" fill="#EBF5FF"/>
  <rect x="0" y="295" width="4" height="45" fill="#2E75B6"/>
  <text x="30" y="325" fill="#2E75B6" font-family="Arial" font-weight="bold" font-size="16">Reportes</text>
  <text x="30" y="375" fill="#64748B" font-family="Arial" font-size="16">Entradas/Salidas</text>

  <text x="300" y="130" fill="#1F4E79" font-family="Arial" font-weight="bold" font-size="28">Reporte de Ingresos</text>
  <rect x="900" y="105" width="100" height="35" rx="4" stroke="#2E75B6" fill="white"/>
  <text x="915" y="128" fill="#2E75B6" font-family="Arial" font-weight="bold" font-size="12">Exportar PDF</text>
  <rect x="1010" y="105" width="100" height="35" rx="4" stroke="#2E75B6" fill="white"/>
  <text x="1025" y="128" fill="#2E75B6" font-family="Arial" font-weight="bold" font-size="12">Exportar CSV</text>

  <rect x="300" y="160" width="150" height="40" rx="4" stroke="#CBD5E1" fill="white"/>
  <text x="315" y="185" fill="#1E293B" font-family="Arial" font-size="13">Mes: Abril ▾</text>
  <rect x="460" y="160" width="100" height="40" rx="4" stroke="#CBD5E1" fill="white"/>
  <text x="475" y="185" fill="#1E293B" font-family="Arial" font-size="13">Año: 2026 ▾</text>
  <rect x="570" y="160" width="180" height="40" rx="4" stroke="#CBD5E1" fill="white"/>
  <text x="585" y="185" fill="#1E293B" font-family="Arial" font-size="13">Método: Todos ▾</text>
  <rect x="760" y="160" width="140" height="40" rx="4" fill="#2E75B6"/>
  <text x="785" y="185" fill="white" font-family="Arial" font-weight="bold" font-size="13">Generar Reporte</text>

  <rect x="300" y="220" width="250" height="100" rx="8" fill="#2E75B6"/>
  <text x="320" y="250" fill="white" font-family="Arial" font-size="14">Total Recaudado</text>
  <text x="320" y="290" fill="white" font-family="Arial" font-weight="bold" font-size="24">$4.520.000</text>

  <rect x="570" y="220" width="250" height="100" rx="8" fill="#F39C12"/>
  <text x="590" y="250" fill="white" font-family="Arial" font-size="14">Pagos Pendientes</text>
  <text x="590" y="290" fill="white" font-family="Arial" font-weight="bold" font-size="24">12 Usuarios</text>

  <rect x="840" y="220" width="260" height="100" rx="8" fill="#E74C3C"/>
  <text x="860" y="250" fill="white" font-family="Arial" font-size="14">Usuarios en Mora</text>
  <text x="860" y="290" fill="white" font-family="Arial" font-weight="bold" font-size="24">5 Usuarios</text>

  <rect x="300" y="340" width="800" height="200" rx="8" fill="white" stroke="#E2E8F0"/>
  <text x="320" y="370" fill="#1F4E79" font-family="Arial" font-weight="bold" font-size="14">Ingresos Diarios (Abril)</text>
  <rect x="350" y="400" width="20" height="100" fill="#3B82F6"/>
  <rect x="380" y="420" width="20" height="80" fill="#3B82F6"/>
  <rect x="410" y="390" width="20" height="110" fill="#3B82F6"/>
  <rect x="440" y="440" width="20" height="60" fill="#3B82F6"/>
  <rect x="470" y="380" width="20" height="120" fill="#3B82F6"/>
  <line x1="330" y1="500" x2="1070" y2="500" stroke="#CBD5E1"/>

  <rect x="300" y="560" width="800" height="300" rx="8" fill="white" stroke="#E2E8F0"/>
  <rect x="300" y="560" width="800" height="40" rx="8" fill="#F1F5F9"/>
  <text x="320" y="585" fill="#64748B" font-family="Arial" font-weight="bold" font-size="11">RECIBO #</text>
  <text x="400" y="585" fill="#64748B" font-family="Arial" font-weight="bold" font-size="11">USUARIO</text>
  <text x="550" y="585" fill="#64748B" font-family="Arial" font-weight="bold" font-size="11">CELDA</text>
  <text x="630" y="585" fill="#64748B" font-family="Arial" font-weight="bold" font-size="11">FECHA</text>
  <text x="730" y="585" fill="#64748B" font-family="Arial" font-weight="bold" font-size="11">MÉTODO</text>
  <text x="830" y="585" fill="#64748B" font-family="Arial" font-weight="bold" font-size="11">MONTO</text>

  <text x="320" y="620" fill="#1E293B" font-family="Arial" font-size="12">00451</text>
  <text x="400" y="620" fill="#1E293B" font-family="Arial" font-size="12">Pedro Pérez</text>
  <text x="550" y="620" fill="#1E293B" font-family="Arial" font-size="12">A-15</text>
  <text x="630" y="620" fill="#1E293B" font-family="Arial" font-size="12">02/04/26</text>
  <text x="730" y="620" fill="#1E293B" font-family="Arial" font-size="12">PSE</text>
  <text x="830" y="620" fill="#1E293B" font-family="Arial" font-weight="bold" font-size="12">$150.000</text>

  <rect x="300" y="820" width="800" height="40" fill="#F8FAFC"/>
  <text x="700" y="845" fill="#1F4E79" font-family="Arial" font-weight="bold" font-size="14">TOTAL PERÍODO:</text>
  <text x="830" y="845" fill="#1F4E79" font-family="Arial" font-weight="bold" font-size="16">$4.520.000</text>
</svg>
